<?xml version="1.0" encoding="utf-8"?>
<!-- Generator: Adobe Illustrator 24.2.1, SVG Export Plug-In . SVG Version: 6.00 Build 0)  -->
<svg version="1.1" id="Layer_1" xmlns="http://www.w3.org/2000/svg" xmlns:xlink="http://www.w3.org/1999/xlink" x="0px" y="0px"
	 viewBox="0 0 130 130" style="enable-background:new 0 0 130 130;" xml:space="preserve">
<style type="text/css">
	.st0{fill:#FFFFFF;}
</style>
<g>
	<path class="st0" d="M65,11c29.8,0,54,24.2,54,54s-24.2,54-54,54S11,94.8,11,65S35.2,11,65,11 M65,1C29.7,1,1,29.7,1,65
		s28.7,64,64,64s64-28.7,64-64S100.3,1,65,1L65,1z"/>
</g>
<g>
	<g>
		<polygon class="st0" points="64.7,72.5 44.8,92.3 37.7,85.2 57.5,65.3 37.7,45.5 45.5,37.7 65.3,57.5 85.2,37.7 92.3,44.8 
			72.5,64.7 92.3,84.5 84.5,92.3 		"/>
	</g>
</g>
</svg>
