<svg id="Layer_1" data-name="Layer 1" xmlns="http://www.w3.org/2000/svg" viewBox="0 0 162 50"><defs><style>.cls-1{fill:#fff;}</style></defs><title>Artboard 1</title><path class="cls-1" d="M66.62,13.86h10L71.36,5.3,61.62,20.76H57.17L69,2.21a2.83,2.83,0,0,1,4.61,0L85.53,20.76H81.09L79,17.3H68.84l-2.22-3.44m46.06,3.44V1.19h-3.77v17.7a1.78,1.78,0,0,0,.56,1.29,1.91,1.91,0,0,0,1.37.58H128l2.24-3.46H112.68M50.43,14.42a6.62,6.62,0,0,0,0-13.23H34V20.76h3.76V4.65H50.18a3.17,3.17,0,0,1,0,6.33H39.57l11.24,9.79h5.46l-7.55-6.34h1.71M10.82,20.76H22.19a9.79,9.79,0,0,0,0-19.57H10.82a9.79,9.79,0,1,0,0,19.57m11.11-3.45H11.07a6.33,6.33,0,0,1,0-12.66H21.93a6.33,6.33,0,1,1,0,12.66m71.45,3.45H105l2.2-3.45H93.64a6.33,6.33,0,1,1,0-12.66h11l2.23-3.46H93.38a9.79,9.79,0,1,0,0,19.57m46-3.45a6.32,6.32,0,0,1-6.09-4.6h16.08l2.21-3.45H133.31a6.32,6.32,0,0,1,6.09-4.61h11l2.21-3.46h-13.5a9.79,9.79,0,0,0,0,19.57h11.61L153,17.31H139.4m15.27-14A1.74,1.74,0,1,1,156.41,5a1.73,1.73,0,0,1-1.74-1.72m1.74,2.2a2.2,2.2,0,1,0-2.21-2.19,2.19,2.19,0,0,0,2.21,2.19M156.2,2a2.15,2.15,0,0,1,.65.06.7.7,0,0,1,.47.69s0,.11,0,.2a.6.6,0,0,1-.3.43.44.44,0,0,1-.1.06l.57,1h-.55l-.51-1h-.33v1h-.49V2h.62m.17,1.11a.41.41,0,0,0,.4-.16.24.24,0,0,0,.07-.2.32.32,0,0,0-.19-.3.92.92,0,0,0-.45-.06h-.13v.72h.3"/><path class="cls-1" d="M11.48,36.86c-.09-.56-.38-2.79-3.48-2.79-3.88,0-4.57,4-4.57,6.65C3.43,43.76,4.3,47,8,47a3.51,3.51,0,0,0,2.61-1,3.22,3.22,0,0,0,.78-1.7h2.46c-.34,3.17-3.26,4.49-6,4.49-5.67,0-6.76-5-6.76-8.13,0-3.39,1.31-8.46,7.05-8.46,2.28,0,5.49.92,5.78,4.58ZM17,32.53h2.09V48.62H17Zm11,4.6c4.49,0,5.49,3.52,5.49,5.87,0,3.28-1.85,6-5.67,6s-5.51-2.57-5.51-5.85C22.37,40.38,23.66,37.13,28.06,37.13Zm-.13,10.31c1.58,0,3.39-1.14,3.39-4.51,0-2.79-1.3-4.26-3.26-4.26-1.34,0-3.5.84-3.5,4.35C24.56,45.32,25.54,47.44,27.93,47.44Zm10.71-10v7.21c0,1.09.24,2.47,2.38,2.47a3,3,0,0,0,2.64-1.25,3.6,3.6,0,0,0,.47-2.09V37.42h2.16v9.1c0,.23.05,1.48.07,2.1H44.17l0-1.92a3.52,3.52,0,0,1-3.57,2c-2.77,0-4.07-1.58-4.07-3.79V37.42ZM58,32.53h2.1v14.3c0,.25,0,1.21.09,1.79h-2.1l0-1.79A3.09,3.09,0,0,1,57,48a5.08,5.08,0,0,1-2.76.82c-1.5,0-4.82-.78-4.82-5.69,0-4.26,2.43-6.11,5.06-6.11A3.61,3.61,0,0,1,58,38.93Zm-.78,7.21a3,3,0,0,0-2.45-1.14c-3.08,0-3.08,3.73-3.08,4.48,0,2,.51,4.29,3.08,4.29,3.3,0,3.3-3.64,3.3-4.51A4.76,4.76,0,0,0,57.22,39.74ZM71,32.51h5.4c2,0,3.3.11,4.39,1.29A4.36,4.36,0,0,1,82,36.93a4.25,4.25,0,0,1-1.27,3.14c-.85.85-2,1.39-4.87,1.39H73.2v7.16H71Zm2.23,7.07h2.66c1.47,0,3.72-.11,3.72-2.74s-2.1-2.53-3.26-2.53H73.2Zm11.79-7h2.1V48.62H85ZM98.21,48.62A5.89,5.89,0,0,1,98,47a3.62,3.62,0,0,1-3.46,2c-2.56,0-4-1.45-4-3.31a3.7,3.7,0,0,1,2-3.28,8.7,8.7,0,0,1,3.88-.73c.54,0,.87,0,1.52.06,0-1.38,0-2-.4-2.47a2.57,2.57,0,0,0-1.94-.74c-2.12,0-2.24,1.45-2.26,1.9h-2.1a3.59,3.59,0,0,1,.79-2.12,5,5,0,0,1,3.61-1.21c1.63,0,3.37.52,4,1.65a3.29,3.29,0,0,1,.38,1.72l-.09,5.36a25.12,25.12,0,0,0,.18,2.81Zm-1.46-5.51c-.84,0-4,0-4,2.27,0,.72.45,1.95,2.33,1.95a2.68,2.68,0,0,0,2.38-1.21c.47-.76.49-1.38.54-2.95A10.37,10.37,0,0,0,96.75,43.11Zm5.87-5.74h2V35l2.07-.67v3h2.5v1.54h-2.5v6.72c0,.56,0,1.5,1.5,1.5a4.21,4.21,0,0,0,1-.12v1.63a9.89,9.89,0,0,1-1.74.14c-1.92,0-2.83-.56-2.83-2.39V38.91h-2Zm16.2-3.3c-.36,0-.8,0-1.23,0-1.69,0-1.69.85-1.69,1.63v1.77h2.61v1.51H115.9v9.69h-2.08V38.93h-2.21V37.42h2.21V36.14c0-1.54.09-2.09.47-2.67a3.12,3.12,0,0,1,2.81-1.23,13.28,13.28,0,0,1,1.72.15ZM126,37.13c4.49,0,5.49,3.52,5.49,5.87,0,3.28-1.85,6-5.66,6s-5.52-2.57-5.52-5.85C120.28,40.38,121.58,37.13,126,37.13Zm-.13,10.31c1.58,0,3.39-1.14,3.39-4.51,0-2.79-1.29-4.26-3.26-4.26-1.33,0-3.5.84-3.5,4.35C122.47,45.32,123.45,47.44,125.84,47.44Zm8.95-7.75c0-.76,0-1.54-.12-2.27h2.12l.05,2.16a3,3,0,0,1,2.68-2.21,6.13,6.13,0,0,1,1.45,0v2.05a2,2,0,0,0-.4-.09,5.35,5.35,0,0,0-.61,0c-2.47,0-3.05,1.47-3.05,3.39v6h-2.12Zm9-.78-.05-1.49h2.12v1.63a3.81,3.81,0,0,1,3.55-1.92,3.55,3.55,0,0,1,3.66,2.09,4,4,0,0,1,3.78-2.09c1.6,0,4.1.67,4.1,4v7.52h-2.12V41.43a2.75,2.75,0,0,0-.38-1.69,2.49,2.49,0,0,0-2.14-1,2.88,2.88,0,0,0-2.39,1.18,4.63,4.63,0,0,0-.49,2.41v6.27h-2.12V41.21a2.27,2.27,0,0,0-2.45-2.45A3,3,0,0,0,146.42,40a3.93,3.93,0,0,0-.49,2.28v6.36h-2.12Z"/></svg>