<?xml version="1.0" encoding="utf-8"?>
<!-- Generator: Adobe Illustrator 22.0.1, SVG Export Plug-In . SVG Version: 6.00 Build 0)  -->
<svg version="1.1" id="Layer_1" xmlns="http://www.w3.org/2000/svg" xmlns:xlink="http://www.w3.org/1999/xlink" x="0px" y="0px"
	 viewBox="0 0 219.2 233.8" style="enable-background:new 0 0 219.2 233.8;" xml:space="preserve">
<style type="text/css">
	.st0{fill:#FFFFFF;}
	.st1{fill:none;stroke:#8AADBF;stroke-miterlimit:10;}
	.st2{fill:#8AADBF;}
	.st3{fill:none;stroke:#F29111;stroke-miterlimit:10;}
	.st4{fill:#F29111;}
	.st5{fill:#324B5C;}
	.st6{fill:none;stroke:#324B5C;stroke-width:4.2992;stroke-linecap:round;stroke-linejoin:round;stroke-miterlimit:10;}
	.st7{fill:none;stroke:#8AADBF;stroke-width:1.0373;stroke-miterlimit:10;}
	.st8{fill:none;stroke:#F29111;stroke-width:1.0373;stroke-miterlimit:10;}
	.st9{fill:none;stroke:#324B5C;stroke-width:1.9805;stroke-linecap:round;stroke-linejoin:round;stroke-miterlimit:10;}
</style>
<rect x="0.5" y="14.4" class="st0" width="218" height="136"/>
<path class="st0" d="M-307.5,63.4v-49h-109v136h109v-49c10.5,0,19-8.5,19-19S-297,63.4-307.5,63.4z"/>
<path class="st0" d="M-273.5,14.4v49c10.5,0,19,8.5,19,19s-8.5,19-19,19v49h109v-136H-273.5z"/>
<g>
	<g>
		<path class="st1" d="M-174.1,138.3c-15.8,13.3-30.8,21.4-41.4,26.1c-12,5.4-37.2,16.4-71,15c-10.5-0.4-33.7-1.4-53-13
			c-5.8-3.5-16.5-11.1-27-20c-0.8-0.7-1.6-1.4-2.4-2.1"/>
		<g>
			<polygon class="st2" points="-177.5,137.4 -167.5,132.4 -173.7,141.8 			"/>
		</g>
		<g>
			<polygon class="st2" points="-365.4,143.5 -375.5,138.4 -369.3,147.8 			"/>
		</g>
	</g>
</g>
<g>
	<g>
		<path class="st3" d="M-405.8,139.3c15.8,13.3,30.8,21.4,41.4,26.1c12,5.4,37.2,16.4,71,15c10.5-0.4,33.7-1.4,53-13
			c5.8-3.5,16.5-11.1,27-20c0.8-0.7,1.6-1.4,2.4-2.1"/>
		<g>
			<polygon class="st4" points="-406.3,142.8 -412.5,133.4 -402.4,138.4 			"/>
		</g>
		<g>
			<polygon class="st4" points="-210.6,148.8 -204.5,139.4 -214.5,144.5 			"/>
		</g>
	</g>
</g>
<g>
	<g>
		<g>
			<path class="st5" d="M-222.6,103.2v-3.8h22v3.8c0,0.6-0.5,1.1-1.1,1.1h-19.7C-222.1,104.3-222.6,103.8-222.6,103.2z"/>
			
				<rect x="-214.1" y="84.2" transform="matrix(-1.836970e-16 1 -1 -1.836970e-16 -116.3951 306.8206)" class="st5" width="4.9" height="22"/>
			
				<rect x="-214.1" y="77.6" transform="matrix(-1.836970e-16 1 -1 -1.836970e-16 -123.0268 300.1888)" class="st5" width="4.9" height="22"/>
			<path class="st5" d="M-222.6,84.4v-3.8c0-0.6,0.5-1.1,1.1-1.1h19.7c0.6,0,1.1,0.5,1.1,1.1v3.8H-222.6z"/>
		</g>
		<path class="st6" d="M-227.7,93.2h-4.2c-7,0-10.8-4.7-10.8-11.7c0-6.5,4.9-11.8,11.1-12.5c-0.1-0.6-0.2-1.2-0.2-1.9
			c0-6.5,5.2-11.7,11.7-11.7c4.5,0,8.4,2.5,10.3,6.2c1.3-0.5,2.6-0.7,4-0.7c5.2,0,9.6,3.4,11.2,8.1c0.5-0.1,1-0.1,1.5-0.1
			c7,0,12.6,5.7,12.6,12.6c0,7-3.8,11.7-10.8,11.7h-4.3"/>
		<path class="st6" d="M-379.7,93.2h-4.2c-7,0-10.8-4.7-10.8-11.7c0-6.5,4.9-11.8,11.1-12.5c-0.1-0.6-0.2-1.2-0.2-1.9
			c0-6.5,5.2-11.7,11.7-11.7c4.5,0,8.4,2.5,10.3,6.2c1.3-0.5,2.6-0.7,4-0.7c5.2,0,9.6,3.4,11.2,8.1c0.5-0.1,1-0.1,1.5-0.1
			c7,0,12.6,5.7,12.6,12.6c0,7-3.8,11.7-10.8,11.7h-4.3"/>
	</g>
	<path class="st5" d="M-361.5,74.4h-4.5l-8.4,5.8v29.2h8.4V103h3.9v6.5h9.1V80.3L-361.5,74.4z M-368,100.4h-3.9v-3.9h3.9V100.4z
		 M-368,93.9h-3.9V90h3.9V93.9z M-368,87.4h-3.9v-3.9h3.9V87.4z M-362.1,100.4h-3.9v-3.9h3.9V100.4z M-362.1,93.9h-3.9V90h3.9V93.9z
		 M-362.1,87.4h-3.9v-3.9h3.9V87.4z M-356.3,100.4h-3.9v-3.9h3.9V100.4z M-356.3,93.9h-3.9V90h3.9V93.9z M-356.3,87.4h-3.9v-3.9h3.9
		V87.4z"/>
</g>
<g>
	<g>
		<path class="st5" d="M156.4,103.2v-3.8h22v3.8c0,0.6-0.5,1.1-1.1,1.1h-19.7C156.9,104.3,156.4,103.8,156.4,103.2z"/>
		
			<rect x="164.9" y="84.2" transform="matrix(-1.836970e-16 1 -1 -1.836970e-16 262.6049 -72.1794)" class="st5" width="4.9" height="22"/>
		
			<rect x="164.9" y="77.6" transform="matrix(-1.836970e-16 1 -1 -1.836970e-16 255.9732 -78.8112)" class="st5" width="4.9" height="22"/>
		<path class="st5" d="M156.4,84.4v-3.8c0-0.6,0.5-1.1,1.1-1.1h19.7c0.6,0,1.1,0.5,1.1,1.1v3.8H156.4z"/>
	</g>
	<path class="st6" d="M151.3,93.2H147c-7,0-10.8-4.7-10.8-11.7c0-6.5,4.9-11.8,11.1-12.5c-0.1-0.6-0.2-1.2-0.2-1.9
		c0-6.5,5.2-11.7,11.7-11.7c4.5,0,8.4,2.5,10.3,6.2c1.3-0.5,2.6-0.7,4-0.7c5.2,0,9.6,3.4,11.2,8.1c0.5-0.1,1-0.1,1.5-0.1
		c7,0,12.6,5.7,12.6,12.6c0,7-3.8,11.7-10.8,11.7h-4.3"/>
</g>
<g>
	<path class="st6" d="M39.3,93.2H35c-7,0-10.8-4.7-10.8-11.7c0-6.5,4.9-11.8,11.1-12.5c-0.1-0.6-0.2-1.2-0.2-1.9
		c0-6.5,5.2-11.7,11.7-11.7c4.5,0,8.4,2.5,10.3,6.2c1.3-0.5,2.6-0.7,4-0.7c5.2,0,9.6,3.4,11.2,8.1c0.5-0.1,1-0.1,1.5-0.1
		c7,0,12.6,5.7,12.6,12.6c0,7-3.8,11.7-10.8,11.7h-4.3"/>
	<path class="st5" d="M57.5,74.4H53l-8.4,5.8v29.2H53V103h3.9v6.5h9.1V80.3L57.5,74.4z M51,100.4h-3.9v-3.9H51V100.4z M51,93.9h-3.9
		V90H51V93.9z M51,87.4h-3.9v-3.9H51V87.4z M56.9,100.4H53v-3.9h3.9V100.4z M56.9,93.9H53V90h3.9V93.9z M56.9,87.4H53v-3.9h3.9V87.4
		z M62.7,100.4h-3.9v-3.9h3.9V100.4z M62.7,93.9h-3.9V90h3.9V93.9z M62.7,87.4h-3.9v-3.9h3.9V87.4z"/>
</g>
<g>
	<path class="st0" d="M-318.1,186.3h-27.4c-1.2,0-2.1,1-2.1,2.1v42.2c0,1.2,1,2.1,2.1,2.1h27.4c1.2,0,2.1-0.9,2.1-2.1v-42.2
		C-316,187.2-317,186.3-318.1,186.3 M-330.8,231.1h-2.1c-0.6,0-1.1-0.5-1.1-1.1c0-0.6,0.5-1.1,1.1-1.1h2.1c0.6,0,1.1,0.5,1.1,1.1
		C-329.7,230.6-330.2,231.1-330.8,231.1 M-318.1,227.4h-27.4v-36.9h27.4V227.4z M-318.3,165.1h-9.1c-1.3,0-2.3,1-2.3,2.3v9.1
		c0,1.3,1,2.3,2.3,2.3h9.1c1.3,0,2.3-1,2.3-2.3v-9.1C-316,166.2-317,165.1-318.3,165.1 M-343.5,176.9v4.9c0,0.7,0.6,1.2,1.2,1.2h4.9
		c0.7,0,1.2-0.6,1.2-1.2v-4.9c0-0.7-0.6-1.2-1.2-1.2h-4.9C-342.9,175.7-343.5,176.3-343.5,176.9 M-306.5,185.2V181
		c0-0.6-0.5-1.1-1.1-1.1h-4.2c-0.6,0-1.1,0.5-1.1,1.1v4.2c0,0.6,0.5,1.1,1.1,1.1h4.2C-307,186.3-306.5,185.8-306.5,185.2
		 M-343.5,171.5c0.6,0,1.1-0.5,1.1-1.1v-4.2c0-0.6-0.5-1.1-1.1-1.1h-4.2c-0.6,0-1.1,0.5-1.1,1.1v4.2c0,0.6,0.5,1.1,1.1,1.1H-343.5z
		 M-351.6,196.8h-2.8c-0.4,0-0.7,0.3-0.7,0.7v2.8c0,0.4,0.3,0.7,0.7,0.7h2.8c0.4,0,0.7-0.3,0.7-0.7v-2.8
		C-350.8,197.1-351.2,196.8-351.6,196.8 M-306.9,175.7h2.8c0.4,0,0.7-0.3,0.7-0.7v-2.8c0-0.4-0.3-0.7-0.7-0.7h-2.8
		c-0.4,0-0.7,0.3-0.7,0.7v2.8C-307.6,175.4-307.3,175.7-306.9,175.7 M-356.5,177.8h2.8c0.4,0,0.7-0.3,0.7-0.7v-2.8
		c0-0.4-0.3-0.7-0.7-0.7h-2.8c-0.4,0-0.7,0.3-0.7,0.7v2.8C-357.2,177.5-356.9,177.8-356.5,177.8 M-354,189.9v-6.3
		c0-0.9-0.7-1.6-1.6-1.6h-6.3c-0.9,0-1.6,0.7-1.6,1.6v6.3c0,0.9,0.7,1.6,1.6,1.6h6.3C-354.7,191.5-354,190.8-354,189.9
		 M-301.8,190.5h-6.3c-0.9,0-1.6,0.7-1.6,1.6v6.3c0,0.9,0.7,1.6,1.6,1.6h6.3c0.9,0,1.6-0.7,1.6-1.6v-6.3
		C-300.2,191.2-300.9,190.5-301.8,190.5 M-342.4,215.8h4.2c0.6,0,1.1-0.5,1.1-1.1v-4.2c0-0.6-0.5-1.1-1.1-1.1h-4.2
		c-0.6,0-1.1,0.5-1.1,1.1v4.2C-343.5,215.3-343,215.8-342.4,215.8 M-342.4,207.4h4.2c0.6,0,1.1-0.5,1.1-1.1v-4.2
		c0-0.6-0.5-1.1-1.1-1.1h-4.2c-0.6,0-1.1,0.5-1.1,1.1v4.2C-343.5,206.9-343,207.4-342.4,207.4 M-334,215.8h4.2
		c0.6,0,1.1-0.5,1.1-1.1v-4.2c0-0.6-0.5-1.1-1.1-1.1h-4.2c-0.6,0-1.1,0.5-1.1,1.1v4.2C-335,215.3-334.5,215.8-334,215.8
		 M-342.4,198.9h4.2c0.6,0,1.1-0.5,1.1-1.1v-4.2c0-0.6-0.5-1.1-1.1-1.1h-4.2c-0.6,0-1.1,0.5-1.1,1.1v4.2
		C-343.5,198.4-343,198.9-342.4,198.9 M-334,198.9h4.2c0.6,0,1.1-0.5,1.1-1.1v-4.2c0-0.6-0.5-1.1-1.1-1.1h-4.2
		c-0.6,0-1.1,0.5-1.1,1.1v4.2C-335,198.4-334.5,198.9-334,198.9 M-334,207.4h4.2c0.6,0,1.1-0.5,1.1-1.1v-4.2c0-0.6-0.5-1.1-1.1-1.1
		h-4.2c-0.6,0-1.1,0.5-1.1,1.1v4.2C-335,206.9-334.5,207.4-334,207.4 M-325.5,198.9h4.2c0.6,0,1.1-0.5,1.1-1.1v-4.2
		c0-0.6-0.5-1.1-1.1-1.1h-4.2c-0.6,0-1.1,0.5-1.1,1.1v4.2C-326.6,198.4-326.1,198.9-325.5,198.9 M-325.5,207.4h4.2
		c0.6,0,1.1-0.5,1.1-1.1v-4.2c0-0.6-0.5-1.1-1.1-1.1h-4.2c-0.6,0-1.1,0.5-1.1,1.1v4.2C-326.6,206.9-326.1,207.4-325.5,207.4"/>
</g>
<g>
	<path class="st0" d="M-250.7,209.6c-11.7,0-21.2-1.6-21.2-3.7v11.7c0,2,9.5,3.7,21.2,3.7c11.7,0,21.2-1.6,21.2-3.7V206
		C-229.5,208-239,209.6-250.7,209.6 M-232.5,215.1c-3.7,1.1-10.5,1.8-18.3,1.8V214c7.8,0,14.6-0.7,18.3-1.8V215.1z M-250.7,174.5
		c-11.7,0-21.2,1.6-21.2,3.7v11.7c0,2,9.5,3.7,21.2,3.7c11.7,0,21.2-1.6,21.2-3.7v-11.7C-229.5,176.2-239,174.5-250.7,174.5
		 M-232.5,187.3c-3.7,1.1-10.5,1.8-18.3,1.8v-2.9c7.8,0,14.6-0.7,18.3-1.8V187.3z M-231.9,179.9c-3.5,1.2-10.6,2-18.8,2
		c-8.2,0-15.2-0.8-18.8-2c-0.2-0.1-0.2-0.4,0-0.5c3.5-1.2,10.6-2,18.8-2c8.2,0,15.2,0.8,18.8,2
		C-231.7,179.5-231.7,179.8-231.9,179.9 M-250.7,196.5c-11.7,0-21.2-1.6-21.2-3.7V203c0,2,9.5,3.7,21.2,3.7
		c11.7,0,21.2-1.6,21.2-3.7v-10.2C-229.5,194.8-239,196.5-250.7,196.5 M-232.5,201.2c-3.7,1.1-10.5,1.8-18.3,1.8v-2.9
		c7.8,0,14.6-0.7,18.3-1.8V201.2z"/>
</g>
<g>
	<g>
		<path class="st0" d="M123.6,230.2h-4l-1.2-8.3h-17.8l-1.2,8.3h-4c-0.8,0-1.4,0.6-1.4,1.4v2.2h31v-2.2
			C125,230.8,124.4,230.2,123.6,230.2 M146.2,174.4H72.9c-0.8,0-1.4,0.6-1.4,1.4v43.5c0,0.8,0.6,1.4,1.4,1.4h73.2
			c0.8,0,1.4-0.6,1.4-1.4v-43.5C147.5,175,146.9,174.4,146.2,174.4 M145.2,216H73.9v-39.2h71.3V216z"/>
	</g>
	<g>
		<polygon class="st0" points="114.6,191.1 120.3,197.7 131.8,192.4 131.8,207.4 91.4,207.4 91.4,202.1 102.9,197.4 108.8,201.2 		
			"/>
		<rect x="91.6" y="180.5" class="st0" width="12.8" height="1.4"/>
		<rect x="91.6" y="184.2" class="st0" width="9.5" height="1.4"/>
		<polygon class="st0" points="131.8,211.6 87.2,211.6 87.2,180.3 89.1,180.3 89.1,209.7 131.8,209.7 		"/>
		<polygon class="st0" points="103,195.8 108.3,199.2 114.3,188.7 120.7,196 131.8,190.9 131.8,181.3 120.4,187.7 114.5,184.7 
			108.8,189.8 103,187.4 91.4,195.3 91.4,200.6 		"/>
	</g>
</g>
<g>
	<g>
		<polyline class="st7" points="70.5,193.9 53.5,193.9 53.5,139.1 		"/>
		<g>
			<polygon class="st2" points="56.6,141.2 53.5,129.9 50.5,141.2 			"/>
		</g>
	</g>
</g>
<g>
	<g>
		<polyline class="st8" points="148.5,193.9 165.5,193.9 165.5,139.1 		"/>
		<g>
			<polygon class="st4" points="168.6,141.2 165.5,129.9 162.5,141.2 			"/>
		</g>
	</g>
</g>
<g>
	<path class="st0" d="M492,106c2.7,19.2,18,18.4,18,18.4c0,0,15.6,0.8,18.1-18.9c0,0,0,0,0.1-0.1v-3.4l4.9-4.2V79.4
		c-0.1-9.1-8.8-18.6-20-18.6c-1.1,0-1.6-0.5-1.6-1.5v-3c-24.9,1.2-24.8,21.6-24.8,21.6v19.7l5.3,4.5V106z"/>
	<polygon class="st0" points="522.5,225.4 497.4,225.4 495,232.4 524.8,232.4 	"/>
	<path class="st0" d="M575,217.6c-0.1-1.1-0.3-2.3-0.4-3.6l-5.8-62.8c0-4.3-2.8-7.9-6.7-9.1l-33-14.4l-19.2,16.4l-19.6-16.2
		l-33.9,14.8c-2.5,1.3-4.4,3.7-5,6.6l-6.1,64.8c-0.1,1.2-0.2,2.3-0.4,3.3c-0.4,3.3,2.1,8.4,2.1,8.4l3,6.9h0.1l14.6-14.6v-64.1h90.5
		v64.1l14.6,14.6l2.9-5.6C572.7,226.8,575.6,221.9,575,217.6"/>
</g>
<g>
	<path class="st0" d="M421.5,112.6l15.4,4.7c3.2-3.6,5.2-8.4,5.2-13.7c0-11.4-9.2-20.6-20.6-20.6c-11.4,0-20.6,9.2-20.6,20.6
		c0,5.3,2,10,5.2,13.7L421.5,112.6z M424.9,104.4c-0.4,1.1-1.2,2-2.4,2.4c-2,0.6-4-0.6-4.6-2.5c-0.6-2,0.6-4,2.5-4.6
		c1.2-0.4,2.5,0,3.4,0.7l8.1-0.8l0.3,1.1L424.9,104.4z M410,91.9c6.3-6.3,16.4-6.3,22.7,0c4.3,4.3,5.7,10.5,4,16l-2.4-0.7
		c0.4-1.3,0.6-2.6,0.6-4c0-7.4-6-13.5-13.5-13.5c-7.4,0-13.4,6-13.4,13.5c0,1.2,0.2,2.4,0.5,3.6l-2.6,0.7
		C404.5,102.1,405.8,96.1,410,91.9"/>
	<path class="st0" d="M498.1,6.1c0-1.6-0.7-3.1-1.8-4.2c-1.2-1.2-2.8-1.8-4.5-1.8h-59.1v45h9.1V26.7H453V45h7V19H471V45h7V11.3H489
		V45h9.1V6.1z"/>
	<polygon class="st0" points="585.7,32.9 599.7,19.4 563.8,19.4 563.8,42.4 579.8,27.9 	"/>
	<polygon class="st0" points="586,37.1 580.3,32.1 564.2,46.6 564.2,46.6 600,46.6 600,23.7 	"/>
	<rect x="584.5" y="108.1" class="st0" width="17.7" height="17.7"/>
	<rect x="468.2" y="67" class="st0" width="8.6" height="8.6"/>
	<rect x="526.4" y="10.9" class="st0" width="8.6" height="8.6"/>
	<path class="st0" d="M575,78.5c0,4.1-3.3,7.5-7.5,7.5c-4.1,0-7.4-3.3-7.4-7.5c0-4.1,3.3-7.5,7.4-7.5C571.7,71.1,575,74.4,575,78.5"
		/>
</g>
<rect x="468.5" y="159.4" class="st0" width="82" height="57"/>
<g>
	<g>
		<path class="st5" d="M523.8,202.5v-1.7h10.1v1.7c0,0.3-0.2,0.5-0.5,0.5h-9.1C524,203,523.8,202.8,523.8,202.5z"/>
		
			<rect x="527.7" y="193.8" transform="matrix(-1.836970e-16 1 -1 -1.836970e-16 727.6411 -329.9969)" class="st5" width="2.3" height="10.1"/>
		
			<rect x="527.7" y="190.7" transform="matrix(-1.836970e-16 1 -1 -1.836970e-16 724.5859 -333.052)" class="st5" width="2.3" height="10.1"/>
		<path class="st5" d="M523.8,193.8v-1.7c0-0.3,0.2-0.5,0.5-0.5h9.1c0.3,0,0.5,0.2,0.5,0.5v1.7H523.8z"/>
	</g>
	<path class="st9" d="M521.4,197.9h-2c-3.2,0-5-2.2-5-5.4c0-3,2.2-5.4,5.1-5.8c0-0.3-0.1-0.6-0.1-0.9c0-3,2.4-5.4,5.4-5.4
		c2.1,0,3.8,1.2,4.8,2.8c0.6-0.2,1.2-0.3,1.8-0.3c2.4,0,4.4,1.6,5.1,3.8c0.2,0,0.5,0,0.7,0c3.2,0,5.8,2.6,5.8,5.8
		c0,3.2-1.7,5.4-5,5.4h-2"/>
</g>
<g>
	<path class="st9" d="M483.6,197.9h-2c-3.2,0-5-2.2-5-5.4c0-3,2.2-5.4,5.1-5.8c0-0.3-0.1-0.6-0.1-0.9c0-3,2.4-5.4,5.4-5.4
		c2.1,0,3.8,1.2,4.8,2.8c0.6-0.2,1.2-0.3,1.8-0.3c2.4,0,4.4,1.6,5.1,3.8c0.2,0,0.5,0,0.7,0c3.2,0,5.8,2.6,5.8,5.8
		c0,3.2-1.7,5.4-5,5.4h-2"/>
	<path class="st5" d="M492,189.3h-2.1l-3.9,2.7v13.4h3.9v-3h1.8v3h4.2v-13.4L492,189.3z M489,201.2h-1.8v-1.8h1.8V201.2z M489,198.2
		h-1.8v-1.8h1.8V198.2z M489,195.2h-1.8v-1.8h1.8V195.2z M491.7,201.2h-1.8v-1.8h1.8V201.2z M491.7,198.2h-1.8v-1.8h1.8V198.2z
		 M491.7,195.2h-1.8v-1.8h1.8V195.2z M494.4,201.2h-1.8v-1.8h1.8V201.2z M494.4,198.2h-1.8v-1.8h1.8V198.2z M494.4,195.2h-1.8v-1.8
		h1.8V195.2z"/>
</g>
<g>
	<g>
		<polyline class="st3" points="71,201.9 29,201.9 29,130.3 		"/>
		<g>
			<polygon class="st4" points="31.9,132.3 29,121.4 26,132.3 			"/>
		</g>
	</g>
</g>
<g>
	<g>
		<polyline class="st1" points="148,201.9 190,201.9 190,130.3 		"/>
		<g>
			<polygon class="st2" points="192.9,132.3 190,121.4 187,132.3 			"/>
		</g>
	</g>
</g>
</svg>
