<?xml version="1.0" encoding="utf-8"?>
<!-- Generator: Adobe Illustrator 22.0.1, SVG Export Plug-In . SVG Version: 6.00 Build 0)  -->
<svg version="1.1" id="Layer_1" xmlns="http://www.w3.org/2000/svg" xmlns:xlink="http://www.w3.org/1999/xlink" x="0px" y="0px"
	 viewBox="0 0 203.6 233.8" style="enable-background:new 0 0 203.6 233.8;" xml:space="preserve">
<style type="text/css">
	.st0{fill:#FFFFFF;}
	.st1{fill:none;stroke:#8AADBF;stroke-miterlimit:10;}
	.st2{fill:#8AADBF;}
	.st3{fill:none;stroke:#F29111;stroke-miterlimit:10;}
	.st4{fill:#F29111;}
	.st5{fill:#324B5C;}
	.st6{fill:none;stroke:#324B5C;stroke-width:4.2992;stroke-linecap:round;stroke-linejoin:round;stroke-miterlimit:10;}
	.st7{fill:none;stroke:#8AADBF;stroke-width:1.0373;stroke-miterlimit:10;}
	.st8{fill:none;stroke:#F29111;stroke-width:1.0373;stroke-miterlimit:10;}
	.st9{fill:none;stroke:#324B5C;stroke-width:1.9805;stroke-linecap:round;stroke-linejoin:round;stroke-miterlimit:10;}
</style>
<rect x="-399.8" y="14.4" class="st0" width="218" height="136"/>
<path class="st0" d="M-707.8,63.4v-49h-109v136h109v-49c10.5,0,19-8.5,19-19S-697.4,63.4-707.8,63.4z"/>
<path class="st0" d="M-673.8,14.4v49c10.5,0,19,8.5,19,19s-8.5,19-19,19v49h109v-136H-673.8z"/>
<g>
	<g>
		<path class="st1" d="M-574.5,138.3c-15.8,13.3-30.8,21.4-41.4,26.1c-12,5.4-37.2,16.4-71,15c-10.5-0.4-33.7-1.4-53-13
			c-5.8-3.5-16.5-11.1-27-20c-0.8-0.7-1.6-1.4-2.4-2.1"/>
		<g>
			<polygon class="st2" points="-577.9,137.4 -567.8,132.4 -574.1,141.8 			"/>
		</g>
		<g>
			<polygon class="st2" points="-765.8,143.5 -775.8,138.4 -769.7,147.8 			"/>
		</g>
	</g>
</g>
<g>
	<g>
		<path class="st3" d="M-806.2,139.3c15.8,13.3,30.8,21.4,41.4,26.1c12,5.4,37.2,16.4,71,15c10.5-0.4,33.7-1.4,53-13
			c5.8-3.5,16.5-11.1,27-20c0.8-0.7,1.6-1.4,2.4-2.1"/>
		<g>
			<polygon class="st4" points="-806.6,142.8 -812.8,133.4 -802.8,138.4 			"/>
		</g>
		<g>
			<polygon class="st4" points="-611,148.8 -604.8,139.4 -614.9,144.5 			"/>
		</g>
	</g>
</g>
<g>
	<g>
		<g>
			<path class="st5" d="M-623,103.2v-3.8h22v3.8c0,0.6-0.5,1.1-1.1,1.1h-19.7C-622.5,104.3-623,103.8-623,103.2z"/>
			
				<rect x="-614.4" y="84.2" transform="matrix(-1.836970e-16 1 -1 -1.836970e-16 -516.777 707.2025)" class="st5" width="4.9" height="22"/>
			
				<rect x="-614.4" y="77.6" transform="matrix(-1.836970e-16 1 -1 -1.836970e-16 -523.4088 700.5707)" class="st5" width="4.9" height="22"/>
			<path class="st5" d="M-623,84.4v-3.8c0-0.6,0.5-1.1,1.1-1.1h19.7c0.6,0,1.1,0.5,1.1,1.1v3.8H-623z"/>
		</g>
		<path class="st6" d="M-628.1,93.2h-4.2c-7,0-10.8-4.7-10.8-11.7c0-6.5,4.9-11.8,11.1-12.5c-0.1-0.6-0.2-1.2-0.2-1.9
			c0-6.5,5.2-11.7,11.7-11.7c4.5,0,8.4,2.5,10.3,6.2c1.3-0.5,2.6-0.7,4-0.7c5.2,0,9.6,3.4,11.2,8.1c0.5-0.1,1-0.1,1.5-0.1
			c7,0,12.6,5.7,12.6,12.6c0,7-3.8,11.7-10.8,11.7h-4.3"/>
		<path class="st6" d="M-780.1,93.2h-4.2c-7,0-10.8-4.7-10.8-11.7c0-6.5,4.9-11.8,11.1-12.5c-0.1-0.6-0.2-1.2-0.2-1.9
			c0-6.5,5.2-11.7,11.7-11.7c4.5,0,8.4,2.5,10.3,6.2c1.3-0.5,2.6-0.7,4-0.7c5.2,0,9.6,3.4,11.2,8.1c0.5-0.1,1-0.1,1.5-0.1
			c7,0,12.6,5.7,12.6,12.6c0,7-3.8,11.7-10.8,11.7h-4.3"/>
	</g>
	<path class="st5" d="M-761.9,74.4h-4.5l-8.4,5.8v29.2h8.4V103h3.9v6.5h9.1V80.3L-761.9,74.4z M-768.4,100.4h-3.9v-3.9h3.9V100.4z
		 M-768.4,93.9h-3.9V90h3.9V93.9z M-768.4,87.4h-3.9v-3.9h3.9V87.4z M-762.5,100.4h-3.9v-3.9h3.9V100.4z M-762.5,93.9h-3.9V90h3.9
		V93.9z M-762.5,87.4h-3.9v-3.9h3.9V87.4z M-756.7,100.4h-3.9v-3.9h3.9V100.4z M-756.7,93.9h-3.9V90h3.9V93.9z M-756.7,87.4h-3.9
		v-3.9h3.9V87.4z"/>
</g>
<g>
	<g>
		<path class="st5" d="M-244,103.2v-3.8h22v3.8c0,0.6-0.5,1.1-1.1,1.1h-19.7C-243.5,104.3-244,103.8-244,103.2z"/>
		
			<rect x="-235.4" y="84.2" transform="matrix(-1.836970e-16 1 -1 -1.836970e-16 -137.777 328.2025)" class="st5" width="4.9" height="22"/>
		
			<rect x="-235.4" y="77.6" transform="matrix(-1.836970e-16 1 -1 -1.836970e-16 -144.4088 321.5707)" class="st5" width="4.9" height="22"/>
		<path class="st5" d="M-244,84.4v-3.8c0-0.6,0.5-1.1,1.1-1.1h19.7c0.6,0,1.1,0.5,1.1,1.1v3.8H-244z"/>
	</g>
	<path class="st6" d="M-249.1,93.2h-4.2c-7,0-10.8-4.7-10.8-11.7c0-6.5,4.9-11.8,11.1-12.5c-0.1-0.6-0.2-1.2-0.2-1.9
		c0-6.5,5.2-11.7,11.7-11.7c4.5,0,8.4,2.5,10.3,6.2c1.3-0.5,2.6-0.7,4-0.7c5.2,0,9.6,3.4,11.2,8.1c0.5-0.1,1-0.1,1.5-0.1
		c7,0,12.6,5.7,12.6,12.6c0,7-3.8,11.7-10.8,11.7h-4.3"/>
</g>
<g>
	<path class="st6" d="M-361.1,93.2h-4.2c-7,0-10.8-4.7-10.8-11.7c0-6.5,4.9-11.8,11.1-12.5c-0.1-0.6-0.2-1.2-0.2-1.9
		c0-6.5,5.2-11.7,11.7-11.7c4.5,0,8.4,2.5,10.3,6.2c1.3-0.5,2.6-0.7,4-0.7c5.2,0,9.6,3.4,11.2,8.1c0.5-0.1,1-0.1,1.5-0.1
		c7,0,12.6,5.7,12.6,12.6c0,7-3.8,11.7-10.8,11.7h-4.3"/>
	<path class="st5" d="M-342.9,74.4h-4.5l-8.4,5.8v29.2h8.4V103h3.9v6.5h9.1V80.3L-342.9,74.4z M-349.4,100.4h-3.9v-3.9h3.9V100.4z
		 M-349.4,93.9h-3.9V90h3.9V93.9z M-349.4,87.4h-3.9v-3.9h3.9V87.4z M-343.5,100.4h-3.9v-3.9h3.9V100.4z M-343.5,93.9h-3.9V90h3.9
		V93.9z M-343.5,87.4h-3.9v-3.9h3.9V87.4z M-337.7,100.4h-3.9v-3.9h3.9V100.4z M-337.7,93.9h-3.9V90h3.9V93.9z M-337.7,87.4h-3.9
		v-3.9h3.9V87.4z"/>
</g>
<g>
	<path class="st0" d="M-718.5,186.3H-746c-1.2,0-2.1,1-2.1,2.1v42.2c0,1.2,0.9,2.1,2.1,2.1h27.4c1.2,0,2.1-0.9,2.1-2.1v-42.2
		C-716.4,187.2-717.3,186.3-718.5,186.3 M-731.2,231.1h-2.1c-0.6,0-1.1-0.5-1.1-1.1c0-0.6,0.5-1.1,1.1-1.1h2.1
		c0.6,0,1.1,0.5,1.1,1.1C-730.1,230.6-730.6,231.1-731.2,231.1 M-718.5,227.4H-746v-36.9h27.4V227.4z M-718.7,165.1h-9.1
		c-1.3,0-2.3,1-2.3,2.3v9.1c0,1.3,1,2.3,2.3,2.3h9.1c1.3,0,2.3-1,2.3-2.3v-9.1C-716.4,166.2-717.4,165.1-718.7,165.1 M-743.8,176.9
		v4.9c0,0.7,0.6,1.2,1.2,1.2h4.9c0.7,0,1.2-0.6,1.2-1.2v-4.9c0-0.7-0.6-1.2-1.2-1.2h-4.9C-743.3,175.7-743.8,176.3-743.8,176.9
		 M-706.9,185.2V181c0-0.6-0.5-1.1-1.1-1.1h-4.2c-0.6,0-1.1,0.5-1.1,1.1v4.2c0,0.6,0.5,1.1,1.1,1.1h4.2
		C-707.4,186.3-706.9,185.8-706.9,185.2 M-743.8,171.5c0.6,0,1.1-0.5,1.1-1.1v-4.2c0-0.6-0.5-1.1-1.1-1.1h-4.2
		c-0.6,0-1.1,0.5-1.1,1.1v4.2c0,0.6,0.5,1.1,1.1,1.1H-743.8z M-751.9,196.8h-2.8c-0.4,0-0.7,0.3-0.7,0.7v2.8c0,0.4,0.3,0.7,0.7,0.7
		h2.8c0.4,0,0.7-0.3,0.7-0.7v-2.8C-751.2,197.1-751.5,196.8-751.9,196.8 M-707.2,175.7h2.8c0.4,0,0.7-0.3,0.7-0.7v-2.8
		c0-0.4-0.3-0.7-0.7-0.7h-2.8c-0.4,0-0.7,0.3-0.7,0.7v2.8C-708,175.4-707.6,175.7-707.2,175.7 M-756.9,177.8h2.8
		c0.4,0,0.7-0.3,0.7-0.7v-2.8c0-0.4-0.3-0.7-0.7-0.7h-2.8c-0.4,0-0.7,0.3-0.7,0.7v2.8C-757.6,177.5-757.2,177.8-756.9,177.8
		 M-754.4,189.9v-6.3c0-0.9-0.7-1.6-1.6-1.6h-6.3c-0.9,0-1.6,0.7-1.6,1.6v6.3c0,0.9,0.7,1.6,1.6,1.6h6.3
		C-755.1,191.5-754.4,190.8-754.4,189.9 M-702.1,190.5h-6.3c-0.9,0-1.6,0.7-1.6,1.6v6.3c0,0.9,0.7,1.6,1.6,1.6h6.3
		c0.9,0,1.6-0.7,1.6-1.6v-6.3C-700.6,191.2-701.3,190.5-702.1,190.5 M-742.8,215.8h4.2c0.6,0,1.1-0.5,1.1-1.1v-4.2
		c0-0.6-0.5-1.1-1.1-1.1h-4.2c-0.6,0-1.1,0.5-1.1,1.1v4.2C-743.8,215.3-743.4,215.8-742.8,215.8 M-742.8,207.4h4.2
		c0.6,0,1.1-0.5,1.1-1.1v-4.2c0-0.6-0.5-1.1-1.1-1.1h-4.2c-0.6,0-1.1,0.5-1.1,1.1v4.2C-743.8,206.9-743.4,207.4-742.8,207.4
		 M-734.3,215.8h4.2c0.6,0,1.1-0.5,1.1-1.1v-4.2c0-0.6-0.5-1.1-1.1-1.1h-4.2c-0.6,0-1.1,0.5-1.1,1.1v4.2
		C-735.4,215.3-734.9,215.8-734.3,215.8 M-742.8,198.9h4.2c0.6,0,1.1-0.5,1.1-1.1v-4.2c0-0.6-0.5-1.1-1.1-1.1h-4.2
		c-0.6,0-1.1,0.5-1.1,1.1v4.2C-743.8,198.4-743.4,198.9-742.8,198.9 M-734.3,198.9h4.2c0.6,0,1.1-0.5,1.1-1.1v-4.2
		c0-0.6-0.5-1.1-1.1-1.1h-4.2c-0.6,0-1.1,0.5-1.1,1.1v4.2C-735.4,198.4-734.9,198.9-734.3,198.9 M-734.3,207.4h4.2
		c0.6,0,1.1-0.5,1.1-1.1v-4.2c0-0.6-0.5-1.1-1.1-1.1h-4.2c-0.6,0-1.1,0.5-1.1,1.1v4.2C-735.4,206.9-734.9,207.4-734.3,207.4
		 M-725.9,198.9h4.2c0.6,0,1.1-0.5,1.1-1.1v-4.2c0-0.6-0.5-1.1-1.1-1.1h-4.2c-0.6,0-1.1,0.5-1.1,1.1v4.2
		C-727,198.4-726.5,198.9-725.9,198.9 M-725.9,207.4h4.2c0.6,0,1.1-0.5,1.1-1.1v-4.2c0-0.6-0.5-1.1-1.1-1.1h-4.2
		c-0.6,0-1.1,0.5-1.1,1.1v4.2C-727,206.9-726.5,207.4-725.9,207.4"/>
</g>
<g>
	<path class="st0" d="M-651.1,209.6c-11.7,0-21.2-1.6-21.2-3.7v11.7c0,2,9.5,3.7,21.2,3.7c11.7,0,21.2-1.6,21.2-3.7V206
		C-629.9,208-639.4,209.6-651.1,209.6 M-632.8,215.1c-3.7,1.1-10.5,1.8-18.3,1.8V214c7.8,0,14.6-0.7,18.3-1.8V215.1z M-651.1,174.5
		c-11.7,0-21.2,1.6-21.2,3.7v11.7c0,2,9.5,3.7,21.2,3.7c11.7,0,21.2-1.6,21.2-3.7v-11.7C-629.9,176.2-639.4,174.5-651.1,174.5
		 M-632.8,187.3c-3.7,1.1-10.5,1.8-18.3,1.8v-2.9c7.8,0,14.6-0.7,18.3-1.8V187.3z M-632.3,179.9c-3.5,1.2-10.6,2-18.8,2
		c-8.2,0-15.2-0.8-18.8-2c-0.2-0.1-0.2-0.4,0-0.5c3.5-1.2,10.6-2,18.8-2c8.2,0,15.2,0.8,18.8,2
		C-632.1,179.5-632.1,179.8-632.3,179.9 M-651.1,196.5c-11.7,0-21.2-1.6-21.2-3.7V203c0,2,9.5,3.7,21.2,3.7
		c11.7,0,21.2-1.6,21.2-3.7v-10.2C-629.9,194.8-639.4,196.5-651.1,196.5 M-632.8,201.2c-3.7,1.1-10.5,1.8-18.3,1.8v-2.9
		c7.8,0,14.6-0.7,18.3-1.8V201.2z"/>
</g>
<g>
	<g>
		<path class="st0" d="M-276.8,230.2h-4l-1.2-8.3h-17.8l-1.2,8.3h-4c-0.8,0-1.4,0.6-1.4,1.4v2.2h31v-2.2
			C-275.4,230.8-276,230.2-276.8,230.2 M-254.2,174.4h-73.2c-0.8,0-1.4,0.6-1.4,1.4v43.5c0,0.8,0.6,1.4,1.4,1.4h73.2
			c0.8,0,1.4-0.6,1.4-1.4v-43.5C-252.8,175-253.5,174.4-254.2,174.4 M-255.2,216h-71.3v-39.2h71.3V216z"/>
	</g>
	<g>
		<polygon class="st0" points="-285.8,191.1 -280.1,197.7 -268.5,192.4 -268.5,207.4 -309,207.4 -309,202.1 -297.5,197.4 
			-291.6,201.2 		"/>
		<rect x="-308.7" y="180.5" class="st0" width="12.8" height="1.4"/>
		<rect x="-308.7" y="184.2" class="st0" width="9.5" height="1.4"/>
		<polygon class="st0" points="-268.5,211.6 -313.2,211.6 -313.2,180.3 -311.3,180.3 -311.3,209.7 -268.5,209.7 		"/>
		<polygon class="st0" points="-297.4,195.8 -292.1,199.2 -286.1,188.7 -279.7,196 -268.5,190.9 -268.5,181.3 -280,187.7 
			-285.9,184.7 -291.6,189.8 -297.4,187.4 -309,195.3 -309,200.6 		"/>
	</g>
</g>
<g>
	<g>
		<polyline class="st7" points="-329.8,193.9 -346.8,193.9 -346.8,139.1 		"/>
		<g>
			<polygon class="st2" points="-343.8,141.2 -346.8,129.9 -349.9,141.2 			"/>
		</g>
	</g>
</g>
<g>
	<g>
		<polyline class="st8" points="-251.8,193.9 -234.8,193.9 -234.8,139.1 		"/>
		<g>
			<polygon class="st4" points="-231.8,141.2 -234.8,129.9 -237.9,141.2 			"/>
		</g>
	</g>
</g>
<g>
	<path class="st0" d="M91.6,106c2.7,19.2,18,18.4,18,18.4c0,0,15.6,0.8,18.1-18.9c0,0,0,0,0.1-0.1v-3.4l4.9-4.2V79.4
		c-0.1-9.1-8.8-18.6-20-18.6c-1.1,0-1.6-0.5-1.6-1.5v-3c-24.9,1.2-24.8,21.6-24.8,21.6v19.7l5.3,4.5V106z"/>
	<polygon class="st0" points="122.1,225.4 97,225.4 94.6,232.4 124.5,232.4 	"/>
	<path class="st0" d="M174.6,217.6c-0.1-1.1-0.3-2.3-0.4-3.6l-5.8-62.8c0-4.3-2.8-7.9-6.7-9.1l-33-14.4l-19.2,16.4l-19.6-16.2
		l-33.9,14.8c-2.5,1.3-4.4,3.7-5,6.6L44.8,214c-0.1,1.2-0.2,2.3-0.4,3.3c-0.4,3.3,2.1,8.4,2.1,8.4l3,6.9h0.1l14.6-14.6v-64.1h90.5
		v64.1l14.6,14.6l2.9-5.6C172.3,226.8,175.2,221.9,174.6,217.6"/>
</g>
<g>
	<path class="st0" d="M21.1,112.6l15.4,4.7c3.2-3.6,5.2-8.4,5.2-13.7c0-11.4-9.2-20.6-20.6-20.6C9.7,83,0.4,92.3,0.4,103.7
		c0,5.3,2,10,5.2,13.7L21.1,112.6z M24.5,104.4c-0.4,1.1-1.2,2-2.4,2.4c-2,0.6-4-0.6-4.6-2.5c-0.6-2,0.6-4,2.5-4.6
		c1.2-0.4,2.5,0,3.4,0.7l8.1-0.8l0.3,1.1L24.5,104.4z M9.7,91.9c6.3-6.3,16.4-6.3,22.7,0c4.3,4.3,5.7,10.5,4,16l-2.4-0.7
		c0.4-1.3,0.6-2.6,0.6-4c0-7.4-6-13.5-13.5-13.5c-7.4,0-13.4,6-13.4,13.5c0,1.2,0.2,2.4,0.5,3.6l-2.6,0.7
		C4.1,102.1,5.4,96.1,9.7,91.9"/>
	<path class="st0" d="M97.8,6.1c0-1.6-0.7-3.1-1.8-4.2C94.8,0.7,93.2,0,91.5,0H32.4v45h9.1V26.7h11.1V45h7V19h11.1V45h7V11.3h11.1
		V45h9.1V6.1z"/>
	<polygon class="st0" points="185.3,32.9 199.3,19.4 163.4,19.4 163.4,42.4 179.5,27.9 	"/>
	<polygon class="st0" points="185.7,37.1 179.9,32.1 163.8,46.6 163.8,46.6 199.7,46.6 199.7,23.7 	"/>
	<rect x="184.1" y="108.1" class="st0" width="17.7" height="17.7"/>
	<rect x="67.8" y="67" class="st0" width="8.6" height="8.6"/>
	<rect x="126" y="10.9" class="st0" width="8.6" height="8.6"/>
	<path class="st0" d="M174.6,78.5c0,4.1-3.3,7.5-7.5,7.5c-4.1,0-7.4-3.3-7.4-7.5c0-4.1,3.3-7.5,7.4-7.5
		C171.3,71.1,174.6,74.4,174.6,78.5"/>
</g>
<rect x="68.2" y="159.4" class="st0" width="82" height="57"/>
<g>
	<g>
		<path class="st5" d="M123.4,202.5v-1.7h10.1v1.7c0,0.3-0.2,0.5-0.5,0.5h-9.1C123.6,203,123.4,202.8,123.4,202.5z"/>
		
			<rect x="127.3" y="193.8" transform="matrix(-1.836970e-16 1 -1 -1.836970e-16 327.2592 70.385)" class="st5" width="2.3" height="10.1"/>
		
			<rect x="127.3" y="190.7" transform="matrix(-1.836970e-16 1 -1 -1.836970e-16 324.204 67.3299)" class="st5" width="2.3" height="10.1"/>
		<path class="st5" d="M123.4,193.8v-1.7c0-0.3,0.2-0.5,0.5-0.5h9.1c0.3,0,0.5,0.2,0.5,0.5v1.7H123.4z"/>
	</g>
	<path class="st9" d="M121,197.9h-2c-3.2,0-5-2.2-5-5.4c0-3,2.2-5.4,5.1-5.8c0-0.3-0.1-0.6-0.1-0.9c0-3,2.4-5.4,5.4-5.4
		c2.1,0,3.8,1.2,4.8,2.8c0.6-0.2,1.2-0.3,1.8-0.3c2.4,0,4.4,1.6,5.1,3.8c0.2,0,0.5,0,0.7,0c3.2,0,5.8,2.6,5.8,5.8
		c0,3.2-1.7,5.4-5,5.4h-2"/>
</g>
<g>
	<path class="st9" d="M83.2,197.9h-2c-3.2,0-5-2.2-5-5.4c0-3,2.2-5.4,5.1-5.8c0-0.3-0.1-0.6-0.1-0.9c0-3,2.4-5.4,5.4-5.4
		c2.1,0,3.8,1.2,4.8,2.8c0.6-0.2,1.2-0.3,1.8-0.3c2.4,0,4.4,1.6,5.1,3.8c0.2,0,0.5,0,0.7,0c3.2,0,5.8,2.6,5.8,5.8
		c0,3.2-1.7,5.4-5,5.4h-2"/>
	<path class="st5" d="M91.6,189.3h-2.1l-3.9,2.7v13.4h3.9v-3h1.8v3h4.2v-13.4L91.6,189.3z M88.6,201.2h-1.8v-1.8h1.8V201.2z
		 M88.6,198.2h-1.8v-1.8h1.8V198.2z M88.6,195.2h-1.8v-1.8h1.8V195.2z M91.3,201.2h-1.8v-1.8h1.8V201.2z M91.3,198.2h-1.8v-1.8h1.8
		V198.2z M91.3,195.2h-1.8v-1.8h1.8V195.2z M94,201.2h-1.8v-1.8H94V201.2z M94,198.2h-1.8v-1.8H94V198.2z M94,195.2h-1.8v-1.8H94
		V195.2z"/>
</g>
<g>
	<g>
		<polyline class="st3" points="-329.4,201.9 -371.4,201.9 -371.4,130.3 		"/>
		<g>
			<polygon class="st4" points="-368.5,132.3 -371.4,121.4 -374.3,132.3 			"/>
		</g>
	</g>
</g>
<g>
	<g>
		<polyline class="st1" points="-252.4,201.9 -210.4,201.9 -210.4,130.3 		"/>
		<g>
			<polygon class="st2" points="-207.5,132.3 -210.4,121.4 -213.3,132.3 			"/>
		</g>
	</g>
</g>
</svg>
