<?xml version="1.0" encoding="utf-8"?>
<!-- Generator: Adobe Illustrator 22.0.1, SVG Export Plug-In . SVG Version: 6.00 Build 0)  -->
<svg version="1.1" id="Layer_1" xmlns="http://www.w3.org/2000/svg" xmlns:xlink="http://www.w3.org/1999/xlink" x="0px" y="0px"
	 viewBox="0 0 253 233.8" style="enable-background:new 0 0 253 233.8;" xml:space="preserve">
<style type="text/css">
	.st0{fill:#FFFFFF;}
	.st1{fill:none;stroke:#8AADBF;stroke-miterlimit:10;}
	.st2{fill:#8AADBF;}
	.st3{fill:none;stroke:#F29111;stroke-miterlimit:10;}
	.st4{fill:#F29111;}
	.st5{fill:#324B5C;}
	.st6{fill:none;stroke:#324B5C;stroke-width:4.2992;stroke-linecap:round;stroke-linejoin:round;stroke-miterlimit:10;}
	.st7{fill:none;stroke:#8AADBF;stroke-width:1.0373;stroke-miterlimit:10;}
	.st8{fill:none;stroke:#F29111;stroke-width:1.0373;stroke-miterlimit:10;}
	.st9{fill:none;stroke:#324B5C;stroke-width:1.9805;stroke-linecap:round;stroke-linejoin:round;stroke-miterlimit:10;}
</style>
<rect x="417" y="14.4" class="st0" width="218" height="136"/>
<path class="st0" d="M109,63.4v-49H0v136h109v-49c10.5,0,19-8.5,19-19S119.5,63.4,109,63.4z"/>
<path class="st0" d="M143,14.4v49c10.5,0,19,8.5,19,19s-8.5,19-19,19v49h109v-136H143z"/>
<g>
	<g>
		<path class="st1" d="M242.4,138.3c-15.8,13.3-30.8,21.4-41.4,26.1c-12,5.4-37.2,16.4-71,15c-10.5-0.4-33.7-1.4-53-13
			c-5.8-3.5-16.5-11.1-27-20c-0.8-0.7-1.6-1.4-2.4-2.1"/>
		<g>
			<polygon class="st2" points="238.9,137.4 249,132.4 242.8,141.8 			"/>
		</g>
		<g>
			<polygon class="st2" points="51,143.5 41,138.4 47.2,147.8 			"/>
		</g>
	</g>
</g>
<g>
	<g>
		<path class="st3" d="M10.6,139.3c15.8,13.3,30.8,21.4,41.4,26.1c12,5.4,37.2,16.4,71,15c10.5-0.4,33.7-1.4,53-13
			c5.8-3.5,16.5-11.1,27-20c0.8-0.7,1.6-1.4,2.4-2.1"/>
		<g>
			<polygon class="st4" points="10.2,142.8 4,133.4 14.1,138.4 			"/>
		</g>
		<g>
			<polygon class="st4" points="205.8,148.8 212,139.4 202,144.5 			"/>
		</g>
	</g>
</g>
<g>
	<g>
		<g>
			<path class="st5" d="M193.9,103.2v-3.8h22v3.8c0,0.6-0.5,1.1-1.1,1.1H195C194.4,104.3,193.9,103.8,193.9,103.2z"/>
			
				<rect x="202.4" y="84.2" transform="matrix(-1.836970e-16 1 -1 -1.836970e-16 300.0673 -109.6418)" class="st5" width="4.9" height="22"/>
			
				<rect x="202.4" y="77.6" transform="matrix(-1.836970e-16 1 -1 -1.836970e-16 293.4355 -116.2735)" class="st5" width="4.9" height="22"/>
			<path class="st5" d="M193.9,84.4v-3.8c0-0.6,0.5-1.1,1.1-1.1h19.7c0.6,0,1.1,0.5,1.1,1.1v3.8H193.9z"/>
		</g>
		<path class="st6" d="M188.7,93.2h-4.2c-7,0-10.8-4.7-10.8-11.7c0-6.5,4.9-11.8,11.1-12.5c-0.1-0.6-0.2-1.2-0.2-1.9
			c0-6.5,5.2-11.7,11.7-11.7c4.5,0,8.4,2.5,10.3,6.2c1.3-0.5,2.6-0.7,4-0.7c5.2,0,9.6,3.4,11.2,8.1c0.5-0.1,1-0.1,1.5-0.1
			c7,0,12.6,5.7,12.6,12.6c0,7-3.8,11.7-10.8,11.7H221"/>
		<path class="st6" d="M36.7,93.2h-4.2c-7,0-10.8-4.7-10.8-11.7c0-6.5,4.9-11.8,11.1-12.5c-0.1-0.6-0.2-1.2-0.2-1.9
			c0-6.5,5.2-11.7,11.7-11.7c4.5,0,8.4,2.5,10.3,6.2c1.3-0.5,2.6-0.7,4-0.7c5.2,0,9.6,3.4,11.2,8.1c0.5-0.1,1-0.1,1.5-0.1
			c7,0,12.6,5.7,12.6,12.6c0,7-3.8,11.7-10.8,11.7H69"/>
	</g>
	<path class="st5" d="M55,74.4h-4.5L42,80.3v29.2h8.4V103h3.9v6.5h9.1V80.3L55,74.4z M48.5,100.4h-3.9v-3.9h3.9V100.4z M48.5,93.9
		h-3.9V90h3.9V93.9z M48.5,87.4h-3.9v-3.9h3.9V87.4z M54.3,100.4h-3.9v-3.9h3.9V100.4z M54.3,93.9h-3.9V90h3.9V93.9z M54.3,87.4
		h-3.9v-3.9h3.9V87.4z M60.1,100.4h-3.9v-3.9h3.9V100.4z M60.1,93.9h-3.9V90h3.9V93.9z M60.1,87.4h-3.9v-3.9h3.9V87.4z"/>
</g>
<g>
	<g>
		<path class="st5" d="M572.9,103.2v-3.8h22v3.8c0,0.6-0.5,1.1-1.1,1.1H574C573.4,104.3,572.9,103.8,572.9,103.2z"/>
		
			<rect x="581.4" y="84.2" transform="matrix(-1.836970e-16 1 -1 -1.836970e-16 679.0673 -488.6418)" class="st5" width="4.9" height="22"/>
		
			<rect x="581.4" y="77.6" transform="matrix(-1.836970e-16 1 -1 -1.836970e-16 672.4355 -495.2736)" class="st5" width="4.9" height="22"/>
		<path class="st5" d="M572.9,84.4v-3.8c0-0.6,0.5-1.1,1.1-1.1h19.7c0.6,0,1.1,0.5,1.1,1.1v3.8H572.9z"/>
	</g>
	<path class="st6" d="M567.7,93.2h-4.2c-7,0-10.8-4.7-10.8-11.7c0-6.5,4.9-11.8,11.1-12.5c-0.1-0.6-0.2-1.2-0.2-1.9
		c0-6.5,5.2-11.7,11.7-11.7c4.5,0,8.4,2.5,10.3,6.2c1.3-0.5,2.6-0.7,4-0.7c5.2,0,9.6,3.4,11.2,8.1c0.5-0.1,1-0.1,1.5-0.1
		c7,0,12.6,5.7,12.6,12.6c0,7-3.8,11.7-10.8,11.7H600"/>
</g>
<g>
	<path class="st6" d="M455.7,93.2h-4.2c-7,0-10.8-4.7-10.8-11.7c0-6.5,4.9-11.8,11.1-12.5c-0.1-0.6-0.2-1.2-0.2-1.9
		c0-6.5,5.2-11.7,11.7-11.7c4.5,0,8.4,2.5,10.3,6.2c1.3-0.5,2.6-0.7,4-0.7c5.2,0,9.6,3.4,11.2,8.1c0.5-0.1,1-0.1,1.5-0.1
		c7,0,12.6,5.7,12.6,12.6c0,7-3.8,11.7-10.8,11.7H488"/>
	<path class="st5" d="M474,74.4h-4.5l-8.4,5.8v29.2h8.4V103h3.9v6.5h9.1V80.3L474,74.4z M467.5,100.4h-3.9v-3.9h3.9V100.4z
		 M467.5,93.9h-3.9V90h3.9V93.9z M467.5,87.4h-3.9v-3.9h3.9V87.4z M473.3,100.4h-3.9v-3.9h3.9V100.4z M473.3,93.9h-3.9V90h3.9V93.9z
		 M473.3,87.4h-3.9v-3.9h3.9V87.4z M479.1,100.4h-3.9v-3.9h3.9V100.4z M479.1,93.9h-3.9V90h3.9V93.9z M479.1,87.4h-3.9v-3.9h3.9
		V87.4z"/>
</g>
<g>
	<path class="st0" d="M98.3,186.3H70.9c-1.2,0-2.1,1-2.1,2.1v42.2c0,1.2,0.9,2.1,2.1,2.1h27.4c1.2,0,2.1-0.9,2.1-2.1v-42.2
		C100.4,187.2,99.5,186.3,98.3,186.3 M85.7,231.1h-2.1c-0.6,0-1.1-0.5-1.1-1.1c0-0.6,0.5-1.1,1.1-1.1h2.1c0.6,0,1.1,0.5,1.1,1.1
		C86.7,230.6,86.3,231.1,85.7,231.1 M98.3,227.4H70.9v-36.9h27.4V227.4z M98.2,165.1H89c-1.3,0-2.3,1-2.3,2.3v9.1
		c0,1.3,1,2.3,2.3,2.3h9.1c1.3,0,2.3-1,2.3-2.3v-9.1C100.4,166.2,99.4,165.1,98.2,165.1 M73,176.9v4.9c0,0.7,0.6,1.2,1.2,1.2h4.9
		c0.7,0,1.2-0.6,1.2-1.2v-4.9c0-0.7-0.6-1.2-1.2-1.2h-4.9C73.6,175.7,73,176.3,73,176.9 M109.9,185.2V181c0-0.6-0.5-1.1-1.1-1.1
		h-4.2c-0.6,0-1.1,0.5-1.1,1.1v4.2c0,0.6,0.5,1.1,1.1,1.1h4.2C109.5,186.3,109.9,185.8,109.9,185.2 M73,171.5c0.6,0,1.1-0.5,1.1-1.1
		v-4.2c0-0.6-0.5-1.1-1.1-1.1h-4.2c-0.6,0-1.1,0.5-1.1,1.1v4.2c0,0.6,0.5,1.1,1.1,1.1H73z M64.9,196.8h-2.8c-0.4,0-0.7,0.3-0.7,0.7
		v2.8c0,0.4,0.3,0.7,0.7,0.7h2.8c0.4,0,0.7-0.3,0.7-0.7v-2.8C65.6,197.1,65.3,196.8,64.9,196.8 M109.6,175.7h2.8
		c0.4,0,0.7-0.3,0.7-0.7v-2.8c0-0.4-0.3-0.7-0.7-0.7h-2.8c-0.4,0-0.7,0.3-0.7,0.7v2.8C108.9,175.4,109.2,175.7,109.6,175.7
		 M60,177.8h2.8c0.4,0,0.7-0.3,0.7-0.7v-2.8c0-0.4-0.3-0.7-0.7-0.7H60c-0.4,0-0.7,0.3-0.7,0.7v2.8C59.3,177.5,59.6,177.8,60,177.8
		 M62.4,189.9v-6.3c0-0.9-0.7-1.6-1.6-1.6h-6.3c-0.9,0-1.6,0.7-1.6,1.6v6.3c0,0.9,0.7,1.6,1.6,1.6h6.3
		C61.7,191.5,62.4,190.8,62.4,189.9 M114.7,190.5h-6.3c-0.9,0-1.6,0.7-1.6,1.6v6.3c0,0.9,0.7,1.6,1.6,1.6h6.3c0.9,0,1.6-0.7,1.6-1.6
		v-6.3C116.3,191.2,115.6,190.5,114.7,190.5 M74.1,215.8h4.2c0.6,0,1.1-0.5,1.1-1.1v-4.2c0-0.6-0.5-1.1-1.1-1.1h-4.2
		c-0.6,0-1.1,0.5-1.1,1.1v4.2C73,215.3,73.5,215.8,74.1,215.8 M74.1,207.4h4.2c0.6,0,1.1-0.5,1.1-1.1v-4.2c0-0.6-0.5-1.1-1.1-1.1
		h-4.2c-0.6,0-1.1,0.5-1.1,1.1v4.2C73,206.9,73.5,207.4,74.1,207.4 M82.5,215.8h4.2c0.6,0,1.1-0.5,1.1-1.1v-4.2
		c0-0.6-0.5-1.1-1.1-1.1h-4.2c-0.6,0-1.1,0.5-1.1,1.1v4.2C81.4,215.3,81.9,215.8,82.5,215.8 M74.1,198.9h4.2c0.6,0,1.1-0.5,1.1-1.1
		v-4.2c0-0.6-0.5-1.1-1.1-1.1h-4.2c-0.6,0-1.1,0.5-1.1,1.1v4.2C73,198.4,73.5,198.9,74.1,198.9 M82.5,198.9h4.2
		c0.6,0,1.1-0.5,1.1-1.1v-4.2c0-0.6-0.5-1.1-1.1-1.1h-4.2c-0.6,0-1.1,0.5-1.1,1.1v4.2C81.4,198.4,81.9,198.9,82.5,198.9 M82.5,207.4
		h4.2c0.6,0,1.1-0.5,1.1-1.1v-4.2c0-0.6-0.5-1.1-1.1-1.1h-4.2c-0.6,0-1.1,0.5-1.1,1.1v4.2C81.4,206.9,81.9,207.4,82.5,207.4
		 M90.9,198.9h4.2c0.6,0,1.1-0.5,1.1-1.1v-4.2c0-0.6-0.5-1.1-1.1-1.1h-4.2c-0.6,0-1.1,0.5-1.1,1.1v4.2
		C89.9,198.4,90.4,198.9,90.9,198.9 M90.9,207.4h4.2c0.6,0,1.1-0.5,1.1-1.1v-4.2c0-0.6-0.5-1.1-1.1-1.1h-4.2c-0.6,0-1.1,0.5-1.1,1.1
		v4.2C89.9,206.9,90.4,207.4,90.9,207.4"/>
</g>
<g>
	<path class="st0" d="M165.7,209.6c-11.7,0-21.2-1.6-21.2-3.7v11.7c0,2,9.5,3.7,21.2,3.7c11.7,0,21.2-1.6,21.2-3.7V206
		C186.9,208,177.4,209.6,165.7,209.6 M184,215.1c-3.7,1.1-10.5,1.8-18.3,1.8V214c7.8,0,14.6-0.7,18.3-1.8V215.1z M165.7,174.5
		c-11.7,0-21.2,1.6-21.2,3.7v11.7c0,2,9.5,3.7,21.2,3.7c11.7,0,21.2-1.6,21.2-3.7v-11.7C186.9,176.2,177.4,174.5,165.7,174.5
		 M184,187.3c-3.7,1.1-10.5,1.8-18.3,1.8v-2.9c7.8,0,14.6-0.7,18.3-1.8V187.3z M184.5,179.9c-3.5,1.2-10.6,2-18.8,2
		c-8.2,0-15.2-0.8-18.8-2c-0.2-0.1-0.2-0.4,0-0.5c3.5-1.2,10.6-2,18.8-2c8.2,0,15.2,0.8,18.8,2C184.7,179.5,184.7,179.8,184.5,179.9
		 M165.7,196.5c-11.7,0-21.2-1.6-21.2-3.7V203c0,2,9.5,3.7,21.2,3.7c11.7,0,21.2-1.6,21.2-3.7v-10.2
		C186.9,194.8,177.4,196.5,165.7,196.5 M184,201.2c-3.7,1.1-10.5,1.8-18.3,1.8v-2.9c7.8,0,14.6-0.7,18.3-1.8V201.2z"/>
</g>
<g>
	<g>
		<path class="st0" d="M540.1,230.2h-4l-1.2-8.3h-17.8l-1.2,8.3h-4c-0.8,0-1.4,0.6-1.4,1.4v2.2h31v-2.2
			C541.5,230.8,540.9,230.2,540.1,230.2 M562.6,174.4h-73.2c-0.8,0-1.4,0.6-1.4,1.4v43.5c0,0.8,0.6,1.4,1.4,1.4h73.2
			c0.8,0,1.4-0.6,1.4-1.4v-43.5C564,175,563.4,174.4,562.6,174.4 M561.6,216h-71.3v-39.2h71.3V216z"/>
	</g>
	<g>
		<polygon class="st0" points="531,191.1 536.8,197.7 548.3,192.4 548.3,207.4 507.9,207.4 507.9,202.1 519.3,197.4 525.3,201.2 		
			"/>
		<rect x="508.1" y="180.5" class="st0" width="12.8" height="1.4"/>
		<rect x="508.1" y="184.2" class="st0" width="9.5" height="1.4"/>
		<polygon class="st0" points="548.3,211.6 503.7,211.6 503.7,180.3 505.6,180.3 505.6,209.7 548.3,209.7 		"/>
		<polygon class="st0" points="519.5,195.8 524.8,199.2 530.8,188.7 537.1,196 548.3,190.9 548.3,181.3 536.8,187.7 530.9,184.7 
			525.3,189.8 519.5,187.4 507.9,195.3 507.9,200.6 		"/>
	</g>
</g>
<g>
	<g>
		<polyline class="st7" points="487,193.9 470,193.9 470,139.1 		"/>
		<g>
			<polygon class="st2" points="473,141.2 470,129.9 467,141.2 			"/>
		</g>
	</g>
</g>
<g>
	<g>
		<polyline class="st8" points="565,193.9 582,193.9 582,139.1 		"/>
		<g>
			<polygon class="st4" points="585,141.2 582,129.9 579,141.2 			"/>
		</g>
	</g>
</g>
<g>
	<path class="st0" d="M908.4,106c2.7,19.2,18,18.4,18,18.4c0,0,15.6,0.8,18.1-18.9c0,0,0,0,0.1-0.1v-3.4l4.9-4.2V79.4
		c-0.1-9.1-8.8-18.6-20-18.6c-1.1,0-1.6-0.5-1.6-1.5v-3c-24.9,1.2-24.8,21.6-24.8,21.6v19.7l5.3,4.5V106z"/>
	<polygon class="st0" points="938.9,225.4 913.8,225.4 911.5,232.4 941.3,232.4 	"/>
	<path class="st0" d="M991.5,217.6c-0.1-1.1-0.3-2.3-0.4-3.6l-5.8-62.8c0-4.3-2.8-7.9-6.7-9.1l-33-14.4l-19.2,16.4l-19.6-16.2
		l-33.9,14.8c-2.5,1.3-4.4,3.7-5,6.6l-6.1,64.8c-0.1,1.2-0.2,2.3-0.4,3.3c-0.4,3.3,2.1,8.4,2.1,8.4l3,6.9h0.1l14.6-14.6v-64.1h90.5
		v64.1l14.6,14.6l2.9-5.6C989.1,226.8,992.1,221.9,991.5,217.6"/>
</g>
<g>
	<path class="st0" d="M837.9,112.6l15.4,4.7c3.2-3.6,5.2-8.4,5.2-13.7c0-11.4-9.2-20.6-20.6-20.6c-11.4,0-20.6,9.2-20.6,20.6
		c0,5.3,2,10,5.2,13.7L837.9,112.6z M841.4,104.4c-0.4,1.1-1.2,2-2.4,2.4c-2,0.6-4-0.6-4.6-2.5c-0.6-2,0.6-4,2.5-4.6
		c1.2-0.4,2.5,0,3.4,0.7l8.1-0.8l0.3,1.1L841.4,104.4z M826.5,91.9c6.3-6.3,16.4-6.3,22.7,0c4.3,4.3,5.7,10.5,4,16l-2.4-0.7
		c0.4-1.3,0.6-2.6,0.6-4c0-7.4-6-13.5-13.5-13.5c-7.4,0-13.4,6-13.4,13.5c0,1.2,0.2,2.4,0.5,3.6l-2.6,0.7
		C820.9,102.1,822.3,96.1,826.5,91.9"/>
	<path class="st0" d="M914.6,6.1c0-1.6-0.7-3.1-1.8-4.2c-1.2-1.2-2.8-1.8-4.5-1.8h-59.1v45h9.1V26.7h11.1V45h7V19h11.1V45h7V11.3
		h11.1V45h9.1V6.1z"/>
	<polygon class="st0" points="1002.1,32.9 1016.1,19.4 980.3,19.4 980.3,42.4 996.3,27.9 	"/>
	<polygon class="st0" points="1002.5,37.1 996.7,32.1 980.7,46.6 980.7,46.6 1016.5,46.6 1016.5,23.7 	"/>
	<rect x="1001" y="108.1" class="st0" width="17.7" height="17.7"/>
	<rect x="884.7" y="67" class="st0" width="8.6" height="8.6"/>
	<rect x="942.9" y="10.9" class="st0" width="8.6" height="8.6"/>
	<path class="st0" d="M991.5,78.5c0,4.1-3.3,7.5-7.5,7.5c-4.1,0-7.4-3.3-7.4-7.5c0-4.1,3.3-7.5,7.4-7.5
		C988.1,71.1,991.5,74.4,991.5,78.5"/>
</g>
<rect x="885" y="159.4" class="st0" width="82" height="57"/>
<g>
	<g>
		<path class="st5" d="M940.2,202.5v-1.7h10.1v1.7c0,0.3-0.2,0.5-0.5,0.5h-9.1C940.5,203,940.2,202.8,940.2,202.5z"/>
		
			<rect x="944.1" y="193.8" transform="matrix(-1.836970e-16 1 -1 -1.836970e-16 1144.1034 -746.4592)" class="st5" width="2.3" height="10.1"/>
		
			<rect x="944.1" y="190.7" transform="matrix(-1.836970e-16 1 -1 -1.836970e-16 1141.0482 -749.5143)" class="st5" width="2.3" height="10.1"/>
		<path class="st5" d="M940.2,193.8v-1.7c0-0.3,0.2-0.5,0.5-0.5h9.1c0.3,0,0.5,0.2,0.5,0.5v1.7H940.2z"/>
	</g>
	<path class="st9" d="M937.8,197.9h-2c-3.2,0-5-2.2-5-5.4c0-3,2.2-5.4,5.1-5.8c0-0.3-0.1-0.6-0.1-0.9c0-3,2.4-5.4,5.4-5.4
		c2.1,0,3.8,1.2,4.8,2.8c0.6-0.2,1.2-0.3,1.8-0.3c2.4,0,4.4,1.6,5.1,3.8c0.2,0,0.5,0,0.7,0c3.2,0,5.8,2.6,5.8,5.8
		c0,3.2-1.7,5.4-5,5.4h-2"/>
</g>
<g>
	<path class="st9" d="M900.1,197.9h-2c-3.2,0-5-2.2-5-5.4c0-3,2.2-5.4,5.1-5.8c0-0.3-0.1-0.6-0.1-0.9c0-3,2.4-5.4,5.4-5.4
		c2.1,0,3.8,1.2,4.8,2.8c0.6-0.2,1.2-0.3,1.8-0.3c2.4,0,4.4,1.6,5.1,3.8c0.2,0,0.5,0,0.7,0c3.2,0,5.8,2.6,5.8,5.8
		c0,3.2-1.7,5.4-5,5.4h-2"/>
	<path class="st5" d="M908.5,189.3h-2.1l-3.9,2.7v13.4h3.9v-3h1.8v3h4.2v-13.4L908.5,189.3z M905.5,201.2h-1.8v-1.8h1.8V201.2z
		 M905.5,198.2h-1.8v-1.8h1.8V198.2z M905.5,195.2h-1.8v-1.8h1.8V195.2z M908.2,201.2h-1.8v-1.8h1.8V201.2z M908.2,198.2h-1.8v-1.8
		h1.8V198.2z M908.2,195.2h-1.8v-1.8h1.8V195.2z M910.9,201.2h-1.8v-1.8h1.8V201.2z M910.9,198.2h-1.8v-1.8h1.8V198.2z M910.9,195.2
		h-1.8v-1.8h1.8V195.2z"/>
</g>
<g>
	<g>
		<polyline class="st3" points="487.4,201.9 445.4,201.9 445.4,130.3 		"/>
		<g>
			<polygon class="st4" points="448.3,132.3 445.4,121.4 442.5,132.3 			"/>
		</g>
	</g>
</g>
<g>
	<g>
		<polyline class="st1" points="564.4,201.9 606.4,201.9 606.4,130.3 		"/>
		<g>
			<polygon class="st2" points="609.3,132.3 606.4,121.4 603.5,132.3 			"/>
		</g>
	</g>
</g>
</svg>
